<svg width="199" height="72" viewBox="0 0 199 72" fill="none" xmlns="http://www.w3.org/2000/svg">
<path d="M72.4555 36.2346C72.4555 36.5161 72.4493 36.7981 72.4446 37.08C72.4337 37.6835 71.9402 38.1642 71.339 38.1642H71.3149C70.7033 38.151 70.2183 37.6462 70.2315 37.0342C70.2358 36.7678 70.24 36.5033 70.24 36.2346C70.24 17.4769 54.9801 2.21389 36.2267 2.21389C17.4732 2.21389 2.21556 17.4769 2.21556 36.2346C2.21556 36.501 2.21556 36.7678 2.22212 37.0342C2.23521 37.6462 1.75014 38.151 1.13836 38.1642H1.11432C0.513455 38.1642 0.0196499 37.6835 0.00873774 37.0781C0.0021749 36.7981 0 36.5161 0 36.2346C0.00217467 16.2552 16.2518 0 36.229 0C56.2061 0 72.4555 16.2552 72.4555 36.2346Z" fill="white"/>
<path d="M71.4898 43.3023C71.2716 43.5889 70.9415 43.7396 70.6072 43.7396C70.3734 43.7396 70.1377 43.6654 69.9365 43.5124L58.4216 34.7465L55.2622 38.711L60.7749 43.0907C61.2534 43.4708 61.3322 44.1679 60.952 44.6463C60.7334 44.922 60.4122 45.0661 60.0845 45.0661C59.8422 45.0661 59.5995 44.9873 59.3964 44.8257L50.8422 38.0291C50.3637 37.6466 50.2849 36.9515 50.6651 36.4731C51.0453 35.9923 51.74 35.9135 52.2207 36.2937L53.5252 37.3321L56.6586 33.4049L52.8347 30.4935L44.6257 40.1731C44.2281 40.6383 43.5314 40.6954 43.0634 40.2997C42.5959 39.904 42.5392 39.2046 42.9369 38.7371L47.0947 33.8375L36.2226 24.912L25.3547 33.8332L29.5145 38.7394C29.9122 39.2069 29.8535 39.9063 29.3879 40.302C28.9203 40.6974 28.2233 40.6407 27.8256 40.175L19.6168 30.4958L15.7931 33.4068L18.9263 37.334L20.2307 36.296C20.7115 35.9158 21.4063 35.9943 21.7863 36.475C22.1665 36.9538 22.088 37.6489 21.6073 38.0311L13.0553 44.8281C12.8521 44.9873 12.6096 45.0684 12.3671 45.0684C12.0415 45.0684 11.7181 44.924 11.4996 44.6487C11.1194 44.1702 11.1981 43.4728 11.6766 43.0926L17.1914 38.713L14.0298 34.7489L2.51504 43.5143C2.31404 43.6673 2.08023 43.7419 1.84428 43.7419C1.50996 43.7419 1.18003 43.5908 0.961517 43.3046C0.590076 42.8173 0.684052 42.1222 1.17129 41.7529L19.9445 27.4626L23.919 32.1459L25.6121 30.756C24.3101 28.7674 23.552 26.3873 23.552 23.8305C23.552 16.8304 29.224 11.1572 36.2226 11.1572C43.2211 11.1572 48.8931 16.8304 48.8931 23.8305C48.8931 26.3896 48.137 28.7716 46.8307 30.7603L48.5238 32.1501L52.5027 27.4602L71.2759 41.7509C71.7632 42.1222 71.8572 42.8149 71.4856 43.3023H71.4898Z" fill="white"/>
<path d="M43.8526 45.3978C43.6165 45.3978 43.3784 45.3213 43.1749 45.1663L35.969 39.5891L29.3138 45.1423C28.8439 45.5333 28.1468 45.47 27.7534 45.0025C27.3624 44.5326 27.4257 43.8351 27.8956 43.4418L35.9166 36.75L44.5298 43.4181C45.0125 43.7916 45.1022 44.4868 44.7287 44.9718C44.51 45.2537 44.1823 45.4025 43.8526 45.4025V45.3978Z" fill="white"/>
<path d="M68.6404 51.0317H3.81483C3.20301 51.0317 2.70703 50.5354 2.70703 49.9233C2.70703 49.3117 3.20301 48.8154 3.81483 48.8154H68.6384C69.25 48.8154 69.7463 49.3117 69.7463 49.9233C69.7463 50.5354 69.25 51.0317 68.6384 51.0317H68.6404Z" fill="white"/>
<path d="M66.8624 55.1777H5.5936C4.98182 55.1777 4.48584 54.6818 4.48584 54.0698C4.48584 53.4578 4.98182 52.9619 5.5936 52.9619H66.8643C67.4763 52.9619 67.9722 53.4578 67.9722 54.0698C67.9722 54.6818 67.4763 55.1777 66.8643 55.1777H66.8624Z" fill="white"/>
<path d="M64.3228 59.3233H8.13221C7.52043 59.3233 7.02441 58.8274 7.02441 58.2153C7.02441 57.6033 7.52043 57.1074 8.13221 57.1074H64.3251C64.9371 57.1074 65.433 57.6033 65.433 58.2153C65.433 58.8274 64.9371 59.3233 64.3251 59.3233H64.3228Z" fill="white"/>
<path d="M59.7541 63.4688H12.701C12.0892 63.4688 11.5933 62.9729 11.5933 62.3608C11.5933 61.7488 12.0892 61.2529 12.701 61.2529H59.7541C60.3661 61.2529 60.862 61.7488 60.862 62.3608C60.862 62.9729 60.3661 63.4688 59.7541 63.4688Z" fill="white"/>
<path d="M53.6607 67.6143H18.7953C18.1835 67.6143 17.6875 67.1184 17.6875 66.5064C17.6875 65.8943 18.1835 65.3984 18.7953 65.3984H53.6607C54.2727 65.3984 54.7686 65.8943 54.7686 66.5064C54.7686 67.1184 54.2727 67.6143 53.6607 67.6143Z" fill="white"/>
<path d="M43.7603 71.7608H28.6973C28.0856 71.7608 27.5894 71.2649 27.5894 70.6528C27.5894 70.0408 28.0856 69.5449 28.6973 69.5449H43.7603C44.3723 69.5449 44.8682 70.0408 44.8682 70.6528C44.8682 71.2649 44.3723 71.7608 43.7603 71.7608Z" fill="white"/>
<path d="M84.9014 46.0081V11.959H96.1825V46.0057H84.9014V46.0081ZM95.1619 38.7109L94.5305 26.1141L107.37 11.959H119.867L105.473 27.8166L99.1015 34.3336L95.1619 38.7109ZM107.271 46.0081L97.2531 32.7775L104.693 24.899L120.547 46.0081H107.271Z" fill="white"/>
<path d="M122.103 46.0081V11.959H138.49C141.667 11.959 144.413 12.4793 146.731 13.515C149.05 14.553 150.842 16.0373 152.104 17.9646C153.37 19.8942 154.001 22.1714 154.001 24.7984C154.001 27.4251 153.37 29.6938 152.104 31.6083C150.839 33.5227 149.047 35.0042 146.731 36.0578C144.413 37.1109 141.667 37.6379 138.49 37.6379H128.472L133.578 32.7251V46.0034H122.101L122.103 46.0081ZM133.578 33.9946L128.472 28.789H137.76C139.348 28.789 140.524 28.4329 141.287 27.7183C142.047 27.0057 142.429 26.0333 142.429 24.8008C142.429 23.5682 142.047 22.5954 141.287 21.8832C140.524 21.1706 139.348 20.8122 137.76 20.8122H128.472L133.578 15.6066V33.9926V33.9946Z" fill="white"/>
<path d="M157.748 46.0081V11.959H167.183L180.8 34.1872H175.84L189.068 11.959H198.502L198.6 46.0057H188.145L188.049 27.716H189.703L180.657 42.9394H175.599L166.165 27.716H168.207V46.0057H157.752L157.748 46.0081Z" fill="white"/>
<path d="M90.8006 54.3119C90.794 53.8835 90.7501 53.5294 90.6694 53.2475C90.5909 52.9655 90.4507 52.7535 90.2519 52.6117C90.0531 52.4696 89.7649 52.404 89.389 52.4106H88.4648L88.4539 58.3331C88.4539 58.5296 88.4539 58.6981 88.4496 58.8379C88.445 58.98 88.4364 59.0981 88.4232 59.1921C88.5762 59.1855 88.7246 59.1765 88.8733 59.1699C89.022 59.1633 89.1727 59.1548 89.3234 59.1482V59.6266H86.7693V59.2682C87.0447 59.253 87.2303 59.1897 87.3285 59.074C87.4268 58.9579 87.4815 58.8006 87.4924 58.6018C87.5033 58.403 87.5075 58.1801 87.5075 57.9331L87.5188 52.4238L86.4 52.4347C85.9433 52.4347 85.6222 52.5877 85.4319 52.8913C85.2439 53.195 85.15 53.6692 85.15 54.3138H84.748L84.8137 52.0215H91.1478L91.2134 54.3138H90.8006V54.3119Z" fill="white"/>
<path d="M97.1897 59.7994C96.5012 59.7994 95.9113 59.6836 95.4197 59.4518C94.9261 59.2204 94.5261 58.9101 94.2201 58.5233C93.9122 58.1365 93.6869 57.7059 93.5405 57.236C93.3941 56.7661 93.3242 56.2939 93.3242 55.824C93.3242 55.3545 93.4007 54.9064 93.5514 54.4388C93.7044 53.9709 93.9362 53.5425 94.2531 53.1515C94.5677 52.76 94.963 52.4455 95.4371 52.2051C95.9113 51.9671 96.4686 51.8467 97.1043 51.8467C97.74 51.8467 98.3454 51.9671 98.8327 52.2051C99.3178 52.4432 99.7174 52.76 100.032 53.1557C100.347 53.5515 100.583 53.9798 100.738 54.4431C100.893 54.9064 100.972 55.3673 100.972 55.8221C100.972 56.2764 100.895 56.7288 100.744 57.1967C100.594 57.6643 100.36 58.095 100.043 58.4903C99.7286 58.886 99.3352 59.2029 98.8634 59.4409C98.3912 59.6794 97.8339 59.7994 97.1897 59.7994ZM97.2091 59.3536C97.6592 59.3536 98.0483 59.2576 98.3826 59.065C98.7147 58.8728 98.9919 58.6173 99.2129 58.2938C99.4335 57.9722 99.5997 57.6119 99.7131 57.2185C99.8245 56.8228 99.8812 56.4275 99.8812 56.0275C99.8812 55.5793 99.8203 55.1335 99.6979 54.6901C99.5756 54.2485 99.3943 53.8462 99.1539 53.4835C98.9135 53.1208 98.6207 52.8303 98.2689 52.6094C97.917 52.3888 97.5174 52.2773 97.0693 52.2773C96.6216 52.2773 96.2282 52.3756 95.8896 52.5701C95.5529 52.7647 95.2733 53.0245 95.0527 53.346C94.8321 53.6695 94.6659 54.0276 94.5521 54.4209C94.4407 54.8167 94.384 55.2166 94.384 55.6209C94.384 56.0251 94.4407 56.436 94.5521 56.8709C94.6636 57.3059 94.8364 57.7125 95.0678 58.0884C95.2997 58.4643 95.5925 58.7703 95.9486 59.0017C96.3024 59.2336 96.7241 59.3493 97.2091 59.3493V59.3536Z" fill="white"/>
<path d="M105.521 52.3776C105.283 52.3776 105.11 52.4281 105.005 52.5306C104.9 52.6335 104.837 52.7492 104.815 52.8847C104.793 53.0179 104.782 53.136 104.782 53.2389V55.9771C104.782 56.3836 104.808 56.7747 104.863 57.1549C104.918 57.5354 105.02 57.8783 105.173 58.1824C105.326 58.4861 105.551 58.7284 105.853 58.9101C106.154 59.0915 106.545 59.1808 107.03 59.1808C107.553 59.1808 107.977 59.0585 108.306 58.8115C108.637 58.5645 108.879 58.2236 109.034 57.791C109.189 57.3584 109.27 56.8555 109.279 56.292L109.312 53.2389C109.312 53.0945 109.316 52.9547 109.323 52.8215C109.329 52.6879 109.338 52.5655 109.345 52.4564C109.213 52.463 109.084 52.4716 108.96 52.4782C108.833 52.4848 108.704 52.4937 108.575 52.5003V52.0215H110.596V52.3799C110.321 52.3865 110.133 52.4498 110.031 52.5655C109.928 52.6817 109.873 52.8366 109.862 53.0335C109.851 53.228 109.843 53.4571 109.836 53.7173L109.814 56.2392C109.814 56.7091 109.764 57.1595 109.661 57.5879C109.558 58.0162 109.395 58.3964 109.167 58.7284C108.94 59.0608 108.639 59.3253 108.265 59.5152C107.891 59.7078 107.435 59.8037 106.891 59.8037C106.312 59.8037 105.825 59.7272 105.429 59.5765C105.034 59.4235 104.719 59.1897 104.483 58.8705C104.247 58.5517 104.079 58.1494 103.978 57.6644C103.878 57.1789 103.825 56.5999 103.825 55.9246V53.7197C103.825 53.5317 103.832 53.3088 103.843 53.051C103.853 52.7931 103.862 52.5962 103.869 52.4587C103.738 52.465 103.609 52.4716 103.478 52.4739C103.347 52.4782 103.218 52.4824 103.087 52.4914V52.0238H105.521V52.3822V52.3776Z" fill="white"/>
<path d="M112.875 59.6272V59.2688C113.15 59.2532 113.338 59.1899 113.441 59.0785C113.541 58.967 113.598 58.8098 113.609 58.6109C113.62 58.4121 113.624 58.1845 113.624 57.9314V53.2368C113.624 53.0927 113.629 52.9529 113.635 52.8193C113.642 52.6861 113.651 52.5638 113.657 52.4547C113.526 52.4609 113.397 52.4698 113.266 52.4764C113.135 52.483 113.006 52.4916 112.875 52.4982V52.0198C113.282 52.0132 113.692 52.0042 114.108 51.9976C114.525 51.991 114.942 51.9933 115.361 52.0085C116.065 52.0151 116.631 52.0982 117.062 52.2535C117.492 52.4085 117.809 52.6294 118.012 52.9156C118.215 53.2018 118.316 53.5471 118.316 53.9537C118.322 54.2356 118.27 54.5241 118.158 54.8169C118.047 55.1097 117.844 55.3719 117.551 55.6037C117.258 55.8355 116.836 56.0103 116.286 56.126C116.43 56.2266 116.557 56.3578 116.666 56.517C116.775 56.6767 116.898 56.8603 117.035 57.0724L117.774 58.235C117.896 58.4296 118.017 58.6063 118.132 58.7616C118.248 58.9169 118.381 59.0412 118.534 59.1309C118.687 59.2206 118.875 59.2664 119.1 59.2664V59.6249H117.732C117.523 59.4369 117.348 59.249 117.206 59.0587C117.064 58.8707 116.917 58.6568 116.766 58.4183L116.039 57.256C115.945 57.103 115.838 56.9279 115.718 56.7291C115.598 56.5302 115.462 56.3621 115.311 56.2242C115.196 56.2308 115.073 56.2351 114.946 56.2351C114.82 56.2351 114.695 56.2308 114.571 56.2242V58.3333C114.571 58.5302 114.571 58.6983 114.566 58.8381C114.562 58.9802 114.553 59.0983 114.538 59.1923C114.625 59.1857 114.713 59.1791 114.798 59.1748C114.885 59.1701 114.973 59.1659 115.058 59.1593C115.143 59.1527 115.231 59.1484 115.318 59.1484V59.6272H112.873H112.875ZM115.244 55.8243C115.641 55.8114 115.991 55.7458 116.292 55.6301C116.594 55.514 116.83 55.3284 117.005 55.0748C117.177 54.8212 117.265 54.4868 117.265 54.076C117.265 53.8006 117.225 53.5603 117.151 53.3525C117.075 53.1471 116.957 52.9747 116.797 52.8368C116.638 52.6993 116.434 52.5964 116.19 52.5265C115.943 52.4566 115.654 52.424 115.32 52.424C115.051 52.424 114.866 52.4784 114.761 52.5879C114.656 52.697 114.597 52.8457 114.588 53.038C114.577 53.2302 114.571 53.4554 114.571 53.7175V55.8048C114.687 55.8114 114.798 55.82 114.903 55.8266C115.008 55.8332 115.121 55.8332 115.246 55.8266L115.244 55.8243Z" fill="white"/>
<path d="M123.501 52.378C123.232 52.3842 123.046 52.4479 122.941 52.5636C122.837 52.6793 122.778 52.8346 122.769 53.0311C122.758 53.2257 122.751 53.4552 122.751 53.7154V58.3331C122.751 58.5296 122.751 58.6981 122.747 58.8379C122.743 58.98 122.734 59.0981 122.719 59.192L123.11 59.1699L123.501 59.1482V59.627H121.056V59.2686C121.331 59.253 121.519 59.1897 121.621 59.0783C121.722 58.9668 121.779 58.8095 121.79 58.6107C121.801 58.4119 121.805 58.1843 121.805 57.9307V53.2366C121.805 53.0925 121.809 52.9527 121.816 52.8191C121.823 52.6859 121.831 52.5636 121.838 52.4541C121.707 52.4607 121.578 52.4696 121.447 52.4762C121.316 52.4828 121.187 52.4914 121.056 52.498V52.0195H123.501V52.378Z" fill="white"/>
<path d="M130.325 54.3227C130.303 53.9751 130.22 53.6454 130.075 53.3352C129.931 53.0245 129.722 52.769 129.446 52.5744C129.171 52.3779 128.819 52.2816 128.393 52.2816C127.943 52.2816 127.6 52.4082 127.362 52.6618C127.124 52.9154 127.003 53.2124 127.003 53.5534C127.003 53.8575 127.091 54.113 127.263 54.3207C127.438 54.5262 127.663 54.7075 127.943 54.8648C128.223 55.0198 128.518 55.1708 128.828 55.3149C129.103 55.4372 129.379 55.5708 129.654 55.7106C129.929 55.8527 130.178 56.0119 130.403 56.1937C130.628 56.375 130.807 56.589 130.941 56.8403C131.074 57.0896 131.142 57.389 131.142 57.7365C131.142 58.1342 131.044 58.4903 130.842 58.8006C130.644 59.1132 130.355 59.3559 129.979 59.5349C129.604 59.712 129.143 59.8017 128.601 59.8017C128.275 59.8017 127.939 59.7559 127.591 59.6596C127.244 59.5632 126.936 59.4281 126.667 59.2464L126.722 59.7143H126.156L126.09 57.3998H126.514C126.551 58.0379 126.772 58.521 127.176 58.8511C127.582 59.1811 128.07 59.345 128.642 59.345C128.924 59.345 129.186 59.2926 129.425 59.1873C129.663 59.0825 129.853 58.9295 129.995 58.7264C130.137 58.5233 130.207 58.2763 130.207 57.9878C130.207 57.662 130.119 57.3913 129.946 57.1727C129.772 56.954 129.549 56.7661 129.274 56.6065C128.999 56.4469 128.706 56.2962 128.393 56.1498C128.118 56.0275 127.847 55.8962 127.578 55.7587C127.309 55.6209 127.065 55.4636 126.844 55.2865C126.623 55.1095 126.446 54.8974 126.311 54.6504C126.175 54.4035 126.11 54.1064 126.11 53.7588C126.11 53.5709 126.143 53.3678 126.208 53.1515C126.274 52.9352 126.387 52.7251 126.551 52.5263C126.715 52.3274 126.938 52.1636 127.224 52.037C127.51 51.91 127.875 51.8467 128.317 51.8467C128.592 51.8467 128.902 51.884 129.245 51.9605C129.588 52.037 129.91 52.1834 130.207 52.3997L130.163 51.9321H130.718V54.3227H130.327H130.325Z" fill="white"/>
<path d="M139.265 54.3119C139.259 53.8835 139.215 53.5294 139.134 53.2475C139.054 52.9655 138.916 52.7535 138.717 52.6117C138.518 52.4696 138.23 52.404 137.854 52.4106H136.93L136.919 58.3331C136.919 58.5296 136.919 58.6981 136.914 58.8379C136.91 58.98 136.902 59.0981 136.888 59.1921C137.041 59.1855 137.19 59.1765 137.338 59.1699C137.487 59.1633 137.638 59.1548 137.788 59.1482V59.6266H135.236V59.2682C135.512 59.253 135.697 59.1897 135.796 59.074C135.894 58.9579 135.949 58.8006 135.96 58.6018C135.971 58.403 135.977 58.1801 135.977 57.9331L135.988 52.4238L134.869 52.4347C134.413 52.4347 134.092 52.5877 133.904 52.8913C133.716 53.195 133.622 53.6692 133.622 54.3138H133.22L133.285 52.0215H139.619L139.685 54.3138H139.272L139.265 54.3119Z" fill="white"/>
<path d="M148.997 59.7361L146.53 53.9558C146.371 53.5861 146.259 53.2867 146.194 53.0595C146.128 52.8323 146.085 52.6378 146.063 52.4782C145.962 52.4848 145.859 52.489 145.759 52.489C145.659 52.489 145.556 52.4937 145.455 52.5003V52.0215H147.977L147.966 52.3908C147.603 52.4125 147.387 52.524 147.315 52.7232C147.243 52.922 147.278 53.204 147.424 53.5643C147.599 53.9927 147.765 54.4059 147.924 54.8035C148.084 55.2012 148.261 55.6341 148.457 56.0974C148.632 56.5036 148.801 56.8927 148.962 57.2644C149.126 57.6379 149.251 57.9463 149.338 58.1933H149.36C149.439 57.9397 149.521 57.697 149.604 57.4655C149.688 57.2337 149.788 56.9584 149.904 56.6392C150.122 56.0318 150.304 55.5161 150.452 55.0963C150.601 54.6769 150.73 54.3185 150.837 54.021C150.946 53.7239 151.036 53.4704 151.108 53.2607C151.173 53.0727 151.23 52.9131 151.28 52.7818C151.331 52.651 151.379 52.5438 151.422 52.4564C151.285 52.463 151.147 52.4716 151.009 52.4782C150.872 52.4848 150.73 52.4937 150.586 52.5003V52.0215H152.79V52.3799C152.471 52.3951 152.226 52.4782 152.056 52.6292C151.885 52.7818 151.733 53.0529 151.595 53.4443C151.58 53.4812 151.562 53.5294 151.54 53.5907C151.519 53.6517 151.481 53.7523 151.431 53.8901C151.381 54.0276 151.309 54.2288 151.215 54.4932C151.121 54.7577 150.992 55.1138 150.83 55.5642C150.667 56.0143 150.461 56.5782 150.212 57.2601C149.963 57.9416 149.659 58.768 149.305 59.7381H149.001L148.997 59.7361Z" fill="white"/>
<path d="M156.994 52.378C156.726 52.3842 156.54 52.4479 156.435 52.5636C156.33 52.6793 156.271 52.8346 156.26 53.0311C156.249 53.2257 156.245 53.4552 156.245 53.7154V58.3331C156.245 58.5296 156.245 58.6981 156.238 58.8379C156.234 58.98 156.225 59.0981 156.212 59.192L156.603 59.1699C156.734 59.1637 156.863 59.1548 156.994 59.1482V59.627H154.549V59.2686C154.825 59.253 155.013 59.1897 155.115 59.0783C155.216 58.9668 155.272 58.8095 155.284 58.6107C155.295 58.4119 155.299 58.1843 155.299 57.9307V53.2366C155.299 53.0925 155.303 52.9527 155.31 52.8191C155.316 52.6859 155.325 52.5636 155.331 52.4541L154.94 52.4762C154.809 52.4828 154.681 52.4914 154.549 52.498V52.0195H156.994V52.378Z" fill="white"/>
<path d="M159.546 59.627V59.2686C159.822 59.253 160.01 59.1897 160.112 59.0783C160.213 58.9668 160.269 58.8095 160.28 58.6107C160.291 58.4119 160.296 58.1843 160.296 57.9307V53.2366C160.296 53.0925 160.3 52.9527 160.307 52.8191C160.313 52.6859 160.322 52.5636 160.328 52.4541L159.937 52.4762C159.806 52.4828 159.677 52.4914 159.546 52.498V52.0195H161.991V52.378C161.723 52.3842 161.537 52.4479 161.432 52.5636C161.327 52.6793 161.268 52.8346 161.257 53.0311C161.246 53.2257 161.242 53.4552 161.242 53.7154V58.3769C161.242 58.5711 161.242 58.7396 161.235 58.8771C161.229 59.015 161.222 59.1307 161.209 59.2247L163.241 59.192C163.698 59.1854 164.043 59.039 164.279 58.7571C164.515 58.4752 164.633 58.0138 164.633 57.3781H165.002L164.936 59.627H159.548H159.546Z" fill="white"/>
<path d="M167.185 59.627V59.2686C167.46 59.253 167.648 59.1897 167.75 59.0783C167.851 58.9668 167.908 58.8095 167.919 58.6107C167.93 58.4119 167.934 58.1843 167.934 57.9307V53.2366C167.934 53.0925 167.938 52.9527 167.945 52.8191C167.952 52.6859 167.96 52.5636 167.967 52.4541L167.576 52.4762C167.445 52.4828 167.316 52.4914 167.185 52.498V52.0195H169.63V52.378C169.361 52.3842 169.175 52.4479 169.07 52.5636C168.965 52.6793 168.906 52.8346 168.896 53.0311C168.885 53.2257 168.88 53.4552 168.88 53.7154V58.3769C168.88 58.5711 168.88 58.7396 168.873 58.8771C168.867 59.015 168.861 59.1307 168.847 59.2247L170.88 59.192C171.336 59.1854 171.681 59.039 171.917 58.7571C172.153 58.4752 172.271 58.0138 172.271 57.3781H172.641L172.575 59.627H167.187H167.185Z" fill="white"/>
<path d="M174.343 59.6273V59.2689C174.559 59.2689 174.727 59.2118 174.843 59.0961C174.959 58.9804 175.055 58.8208 175.131 58.6177C175.208 58.4142 175.295 58.1781 175.398 57.9117L177.635 51.8164H177.895L180.318 57.9991C180.377 58.1521 180.441 58.3466 180.515 58.587C180.587 58.8251 180.616 59.0285 180.603 59.1944C180.725 59.1877 180.849 59.1792 180.972 59.1726C181.094 59.166 181.219 59.1575 181.341 59.1509V59.6293H178.852V59.2709C179.128 59.2643 179.309 59.2033 179.397 59.0872C179.484 58.9714 179.517 58.834 179.495 58.6744C179.473 58.5148 179.438 58.3707 179.386 58.2394L179.005 57.2189L176.18 57.2845L175.8 58.4472C175.75 58.6219 175.704 58.7594 175.665 58.86C175.625 58.9606 175.579 59.0744 175.529 59.1967C175.673 59.1901 175.818 59.1811 175.957 59.1749C176.097 59.1683 176.237 59.1594 176.375 59.1528V59.6316H174.343V59.6273ZM176.342 56.8123H178.852L178.081 54.7363C178 54.511 177.919 54.2881 177.836 54.0676C177.754 53.8466 177.672 53.6237 177.592 53.3989H177.57C177.498 53.602 177.423 53.8051 177.347 54.0062C177.27 54.2093 177.192 54.4147 177.113 54.6248L176.342 56.808V56.8123Z" fill="white"/>
<path d="M186.718 59.7997C185.993 59.7997 185.353 59.6467 184.795 59.343C184.238 59.0394 183.804 58.6002 183.491 58.0274C183.178 57.455 183.023 56.775 183.023 55.984C183.023 55.4706 183.102 54.9677 183.257 54.4784C183.412 53.9887 183.648 53.5452 183.963 53.1472C184.277 52.7495 184.673 52.4326 185.147 52.1965C185.621 51.9608 186.174 51.8428 186.803 51.8428C187.063 51.8428 187.328 51.8668 187.596 51.9127C187.865 51.9608 188.123 52.0284 188.374 52.1181C188.624 52.2097 188.851 52.3146 189.054 52.4392L189.01 51.9169H189.609V54.4062H189.218C189.189 53.9495 189.067 53.5646 188.853 53.2478C188.639 52.9332 188.361 52.6928 188.022 52.5247C187.682 52.3585 187.302 52.2754 186.882 52.2754C186.497 52.2754 186.137 52.3604 185.8 52.5309C185.464 52.7014 185.167 52.9398 184.909 53.2478C184.651 53.5561 184.45 53.9211 184.306 54.3405C184.162 54.7603 184.09 55.2255 184.09 55.7304C184.09 56.4123 184.212 57.02 184.459 57.5555C184.706 58.0907 185.047 58.5124 185.486 58.8165C185.925 59.1201 186.43 59.2731 187.002 59.2731C187.196 59.2731 187.402 59.2557 187.616 59.2184C187.83 59.1815 188.045 59.1225 188.256 59.0394C188.468 58.9563 188.671 58.8533 188.859 58.7291V56.349C188.737 56.3556 188.61 56.3641 188.479 56.3707C188.348 56.3773 188.221 56.3863 188.099 56.3929V55.9141H190.555V56.2725C190.352 56.2725 190.197 56.3249 190.087 56.4298C189.978 56.5346 189.902 56.6616 189.86 56.8099C189.817 56.9587 189.79 57.1031 189.784 57.2449C189.777 57.387 189.773 57.4942 189.773 57.5664V59.2293H189.48C189.364 59.2293 189.205 59.2514 189.001 59.2949C188.798 59.3388 188.567 59.4106 188.307 59.5112C188.081 59.5986 187.822 59.6665 187.524 59.7166C187.227 59.7671 186.958 59.7931 186.72 59.7931L186.718 59.7997Z" fill="white"/>
<path d="M196.518 56.8126C196.518 56.4937 196.474 56.2662 196.387 56.1287C196.3 55.9908 196.162 55.9077 195.974 55.8794C195.786 55.8511 195.535 55.8421 195.224 55.8577L194.431 55.8903V58.3795C194.431 58.574 194.431 58.7422 194.425 58.8801C194.418 59.0179 194.412 59.1336 194.398 59.2276L196.474 59.1946C196.793 59.188 197.068 59.1356 197.3 59.0373C197.532 58.9391 197.713 58.7686 197.844 58.5216C197.975 58.2746 198.039 57.938 198.039 57.512H198.408L198.342 59.6319H192.736V59.2734C193.011 59.2583 193.199 59.1946 193.302 59.0831C193.402 58.9717 193.459 58.8144 193.47 58.6156C193.481 58.4168 193.485 58.1896 193.485 57.936V53.2418C193.485 53.0974 193.49 52.9576 193.496 52.8244C193.503 52.6908 193.511 52.5685 193.518 52.4593L193.127 52.4811C192.996 52.4877 192.867 52.4962 192.736 52.5028V52.0244H197.962L198.017 53.9257H197.658C197.658 53.4974 197.593 53.1739 197.462 52.9533C197.331 52.7323 197.156 52.584 196.935 52.5075C196.715 52.431 196.465 52.398 196.192 52.4046L195.257 52.4263C194.989 52.4329 194.796 52.4854 194.68 52.5793C194.564 52.6733 194.495 52.8135 194.469 52.9968C194.442 53.1805 194.431 53.4232 194.431 53.7203V55.46L196.474 55.4709L196.398 54.5377H196.876V56.8192H196.518V56.8126Z" fill="white"/>
</svg>
